# xmcd
#
# Track frame offsets:
#	150
#	14529
#	30828
#	50339
#	65655
#	87919
#	108589
#	127105
#	140491
#	152904
#	164723
#	178929
#	191318
#	210255
#	230527
#	246132
#
# Disc length: 3478 seconds
#
# Revision: 4
# Processed by: cddbd v1.5.2PL0 Copyright (c) Steve Scherf et al.
# Submitted via: EZCDAudioConverter 1.3.4.1
#
DISCID=de0d9410
DTITLE=V/A - Motown's Mowest Story 1971-1973
DYEAR=2011
DGENRE=
TTITLE0=Frankie Valli and The Four Seasons - You're A Song (That I Can't Sing)
TTITLE1=Odyssey - Our Lives Are Shaped By What We Love 
TTITLE2=Sisters Love - Give Me Your Love
TTITLE3=G.C. Cameron - Act Like A Shotgun
TTITLE4=Syreeta - I Love Every Little Thing About You
TTITLE5=Syreeta - Black Maybe
TTITLE6=Frankie Valli and The Four Seasons - Sun Country
TTITLE7=Odyssey - Battened Ships
TTITLE8=Suzee Ikeda - I Can't Give Back The Love I Feel For You
TTITLE9=The Commodores - Don't You Be Worried
TTITLE10=Sisters Love - You've Got To Make The Choice
TTITLE11=Odyssey - Broken Road
TTITLE12=Nu Page - A Heart Is A House
TTITLE13=Lodi - I Hope I See It In My Lifetime
TTITLE14=Frankie Valli and The Four Seasons - The Night
TTITLE15=Thelma Houston - I Ain't Going Nowhere
EXTD=
EXTT0=
EXTT1=
EXTT2=
EXTT3=
EXTT4=
EXTT5=
EXTT6=
EXTT7=
EXTT8=
EXTT9=
EXTT10=
EXTT11=
EXTT12=
EXTT13=
EXTT14=
EXTT15=
PLAYORDER=
